<svg id="Layer_1" data-name="Layer 1" xmlns="http://www.w3.org/2000/svg" xmlns:xlink="http://www.w3.org/1999/xlink" width="538.5" height="150" viewBox="0 0 538.5 150"><defs><linearGradient id="linear-gradient" y1="75" x2="150" y2="75" gradientUnits="userSpaceOnUse"><stop offset="0" stop-color="#3197d6"/><stop offset="1" stop-color="#7e80e7"/></linearGradient></defs><path d="M23.08,0H150a0,0,0,0,1,0,0V126.9A23.1,23.1,0,0,1,126.9,150H46.15A46.15,46.15,0,0,1,0,103.85V23.08A23.08,23.08,0,0,1,23.08,0Z" style="fill:url(#linear-gradient)"/><g style="opacity:0.5"><path d="M113.7,76.33a24.22,24.22,0,0,0,0-34.27h0a24.23,24.23,0,0,0-34.26,0L75,46.5l34.27,34.27Z" style="fill:#fff"/></g><rect x="50.77" y="56.54" width="48.46" height="48.46" transform="translate(-35.14 76.69) rotate(-45)" style="fill:#fff"/><path d="M70.56,42.06A24.23,24.23,0,0,0,36.3,76.33l4.43,4.44L75,46.5ZM57.87,60.76A2.89,2.89,0,0,1,55,63.63H43.61a2.89,2.89,0,0,1-2.88-2.87V49.38a2.89,2.89,0,0,1,2.88-2.88H55a2.89,2.89,0,0,1,2.88,2.88Z" style="fill:#fff"/><path d="M211.23,40.89H227.6v5.46h.21A18.93,18.93,0,0,1,242.4,40c13.34,0,23.42,10.92,23.42,26.66s-10.08,26.56-24.26,26.56c-5.87,0-10.39-2.1-13.75-6l-.21.11V113H211.23Zm38,25.72c0-7.34-4.73-12.17-11-12.17-6.62,0-11.34,5.14-11.34,12.17,0,7.35,4.93,12.08,11.44,12.08C244.61,78.69,249.23,73.86,249.23,66.61Z" style="fill:#1b1e51"/><path d="M271.91,66.61C271.91,50.87,282.1,40,295.32,40a18.38,18.38,0,0,1,14.18,6.4l.21-.1V40.89h16.48V92.23H310.55V86.88l-.21-.11c-3.36,4.3-8,6.4-14.18,6.4C282.1,93.17,271.91,82.47,271.91,66.61Zm38.53,0c0-7-4.72-12.17-10.81-12.17-6.3,0-11,4.83-11,12.17s4.51,12.08,11,12.08C305.51,78.69,310.44,74,310.44,66.61Z" style="fill:#1b1e51"/><path d="M352.55,88.76,332.5,40.89H350L360.32,68.5h.31l9.87-27.61h16.38L359.9,113H343.73Z" style="fill:#1b1e51"/><path d="M393.5,15h16.38V46.67l.21.1A20.57,20.57,0,0,1,425.94,40c10.6,0,18.48,5.14,18.48,21.31v31H428V65.35c0-8.29-2.83-10.81-8.61-10.81s-9.55,3.78-9.55,11.76V92.23H393.5Z" style="fill:#1b1e51"/><path d="M454.09,25c0-5,4.09-9.24,9.76-9.24s9.87,4.1,9.87,9.24c0,5.36-4.2,9.45-9.87,9.45S454.09,30.4,454.09,25Zm1.57,15.85H472V92.23H455.66Z" style="fill:#1b1e51"/><path d="M483.91,40.89h16.37v5.46h.21A18.93,18.93,0,0,1,515.08,40c13.34,0,23.42,10.92,23.42,26.66s-10.08,26.56-24.26,26.56c-5.88,0-10.39-2.1-13.75-6l-.21.11V113H483.91Zm38,25.72c0-7.34-4.73-12.17-11-12.17-6.61,0-11.33,5.14-11.33,12.17,0,7.35,4.93,12.08,11.44,12.08C517.29,78.69,521.91,73.86,521.91,66.61Z" style="fill:#1b1e51"/></svg>